<mxfile host="app.diagrams.net" agent="Mozilla/5.0 (Macintosh; Intel Mac OS X 10_15_7) AppleWebKit/537.36 (KHTML, like Gecko) Chrome/140.0.0.0 Safari/537.36" version="28.2.3">
  <diagram name="Page-1" id="gs8IiTpHVDhQRjsrOOGX">
    <mxGraphModel dx="2201" dy="871" grid="1" gridSize="10" guides="1" tooltips="1" connect="1" arrows="1" fold="1" page="1" pageScale="1" pageWidth="850" pageHeight="1100" math="0" shadow="0">
      <root>
        <mxCell id="0" />
        <mxCell id="1" parent="0" />
        <mxCell id="MYcXMfVTnSXTMlCnbvHV-4" value="Cloudflare" style="points=[[0,0],[0.25,0],[0.5,0],[0.75,0],[1,0],[1,0.25],[1,0.5],[1,0.75],[1,1],[0.75,1],[0.5,1],[0.25,1],[0,1],[0,0.75],[0,0.5],[0,0.25]];outlineConnect=0;gradientColor=none;html=1;whiteSpace=wrap;fontSize=12;fontStyle=0;container=1;pointerEvents=0;collapsible=0;recursiveResize=0;shape=mxgraph.aws4.group;grIcon=mxgraph.aws4.group_aws_cloud;strokeColor=#FF9933;fillColor=none;verticalAlign=top;align=left;spacingLeft=30;fontColor=#232F3E;dashed=0;" parent="1" vertex="1">
          <mxGeometry x="240" y="210" width="530" height="390" as="geometry" />
        </mxCell>
        <mxCell id="MYcXMfVTnSXTMlCnbvHV-10" value="" style="points=[];aspect=fixed;html=1;align=center;shadow=0;dashed=0;fillColor=#FF9933;strokeColor=none;shape=mxgraph.alibaba_cloud.dns_privatezone_02;" parent="MYcXMfVTnSXTMlCnbvHV-4" vertex="1">
          <mxGeometry x="125.1" y="20.000000000000014" width="49.8" height="52.2" as="geometry" />
        </mxCell>
        <mxCell id="MYcXMfVTnSXTMlCnbvHV-11" value="Cloudflare&lt;br&gt;Edge" style="html=1;verticalLabelPosition=bottom;align=center;labelBackgroundColor=#ffffff;verticalAlign=top;strokeWidth=2;strokeColor=#FF9933;shadow=0;dashed=0;shape=mxgraph.ios7.icons.globe;" parent="MYcXMfVTnSXTMlCnbvHV-4" vertex="1">
          <mxGeometry x="125.1" y="140" width="50" height="50" as="geometry" />
        </mxCell>
        <mxCell id="MYcXMfVTnSXTMlCnbvHV-14" value="Cloudflare&lt;div&gt;&amp;nbsp;DNS&lt;/div&gt;" style="text;html=1;align=center;verticalAlign=middle;resizable=0;points=[];autosize=1;strokeColor=none;fillColor=none;" parent="MYcXMfVTnSXTMlCnbvHV-4" vertex="1">
          <mxGeometry x="165" y="26.1" width="80" height="40" as="geometry" />
        </mxCell>
        <mxCell id="MYcXMfVTnSXTMlCnbvHV-22" style="edgeStyle=orthogonalEdgeStyle;rounded=0;orthogonalLoop=1;jettySize=auto;html=1;entryX=0.498;entryY=-0.08;entryDx=0;entryDy=0;entryPerimeter=0;dashed=1;" parent="MYcXMfVTnSXTMlCnbvHV-4" source="MYcXMfVTnSXTMlCnbvHV-10" target="MYcXMfVTnSXTMlCnbvHV-11" edge="1">
          <mxGeometry relative="1" as="geometry" />
        </mxCell>
        <mxCell id="MYcXMfVTnSXTMlCnbvHV-23" value="TLS handshake/SSL offloading" style="text;html=1;align=center;verticalAlign=middle;whiteSpace=wrap;rounded=0;" parent="MYcXMfVTnSXTMlCnbvHV-4" vertex="1">
          <mxGeometry x="145" y="74" width="140" height="40" as="geometry" />
        </mxCell>
        <mxCell id="MYcXMfVTnSXTMlCnbvHV-24" value="TCP request" style="text;html=1;align=center;verticalAlign=middle;resizable=0;points=[];autosize=1;strokeColor=none;fillColor=none;" parent="MYcXMfVTnSXTMlCnbvHV-4" vertex="1">
          <mxGeometry x="30" y="26.100000000000023" width="90" height="30" as="geometry" />
        </mxCell>
        <mxCell id="MYcXMfVTnSXTMlCnbvHV-29" value="" style="endArrow=classic;html=1;rounded=0;entryX=0.078;entryY=0.556;entryDx=0;entryDy=0;entryPerimeter=0;edgeStyle=orthogonalEdgeStyle;dashed=1;" parent="MYcXMfVTnSXTMlCnbvHV-4" target="MYcXMfVTnSXTMlCnbvHV-10" edge="1">
          <mxGeometry width="50" height="50" relative="1" as="geometry">
            <mxPoint y="130" as="sourcePoint" />
            <mxPoint x="115" y="39" as="targetPoint" />
            <Array as="points">
              <mxPoint y="131" />
              <mxPoint x="25" y="131" />
              <mxPoint x="25" y="49" />
            </Array>
          </mxGeometry>
        </mxCell>
        <mxCell id="MYcXMfVTnSXTMlCnbvHV-58" style="rounded=0;orthogonalLoop=1;jettySize=auto;html=1;entryX=1.033;entryY=0.4;entryDx=0;entryDy=0;entryPerimeter=0;dashed=1;" parent="MYcXMfVTnSXTMlCnbvHV-4" source="MYcXMfVTnSXTMlCnbvHV-35" target="MYcXMfVTnSXTMlCnbvHV-42" edge="1">
          <mxGeometry relative="1" as="geometry" />
        </mxCell>
        <mxCell id="MYcXMfVTnSXTMlCnbvHV-35" value="Load balancer" style="outlineConnect=0;dashed=0;verticalLabelPosition=bottom;verticalAlign=top;align=center;html=1;shape=mxgraph.aws3.application_load_balancer;fillColor=#F58534;gradientColor=none;" parent="MYcXMfVTnSXTMlCnbvHV-4" vertex="1">
          <mxGeometry x="310" y="270" width="70" height="70" as="geometry" />
        </mxCell>
        <mxCell id="MYcXMfVTnSXTMlCnbvHV-36" style="rounded=0;orthogonalLoop=1;jettySize=auto;html=1;edgeStyle=orthogonalEdgeStyle;dashed=1;" parent="MYcXMfVTnSXTMlCnbvHV-4" edge="1">
          <mxGeometry relative="1" as="geometry">
            <mxPoint x="420" y="190.0045454545454" as="sourcePoint" />
            <mxPoint x="385" y="307.0999999999999" as="targetPoint" />
            <Array as="points">
              <mxPoint x="420" y="307.04999999999995" />
            </Array>
          </mxGeometry>
        </mxCell>
        <mxCell id="MYcXMfVTnSXTMlCnbvHV-57" value="Selected pool" style="text;html=1;align=center;verticalAlign=middle;resizable=0;points=[];autosize=1;strokeColor=none;fillColor=none;" parent="MYcXMfVTnSXTMlCnbvHV-4" vertex="1">
          <mxGeometry x="210.00000000000003" y="280" width="100" height="30" as="geometry" />
        </mxCell>
        <mxCell id="MYcXMfVTnSXTMlCnbvHV-42" value="Cloudflare Pools" style="rounded=0;whiteSpace=wrap;html=1;" parent="MYcXMfVTnSXTMlCnbvHV-4" vertex="1">
          <mxGeometry x="80" y="280" width="120" height="60" as="geometry" />
        </mxCell>
        <mxCell id="MYcXMfVTnSXTMlCnbvHV-43" value="" style="endArrow=none;dashed=1;html=1;dashPattern=1 3;strokeWidth=2;rounded=0;entryX=1;entryY=0.5;entryDx=0;entryDy=0;" parent="MYcXMfVTnSXTMlCnbvHV-4" edge="1">
          <mxGeometry width="50" height="50" relative="1" as="geometry">
            <mxPoint x="80" y="298" as="sourcePoint" />
            <mxPoint x="200" y="298" as="targetPoint" />
          </mxGeometry>
        </mxCell>
        <mxCell id="MYcXMfVTnSXTMlCnbvHV-56" value="" style="endArrow=none;dashed=1;html=1;dashPattern=1 3;strokeWidth=2;rounded=0;entryX=1;entryY=0.5;entryDx=0;entryDy=0;" parent="MYcXMfVTnSXTMlCnbvHV-4" edge="1">
          <mxGeometry width="50" height="50" relative="1" as="geometry">
            <mxPoint x="83" y="320" as="sourcePoint" />
            <mxPoint x="203" y="320" as="targetPoint" />
          </mxGeometry>
        </mxCell>
        <mxCell id="MYcXMfVTnSXTMlCnbvHV-19" style="rounded=0;orthogonalLoop=1;jettySize=auto;html=1;" parent="1" source="MYcXMfVTnSXTMlCnbvHV-6" edge="1">
          <mxGeometry relative="1" as="geometry">
            <mxPoint x="240" y="345" as="targetPoint" />
          </mxGeometry>
        </mxCell>
        <mxCell id="MYcXMfVTnSXTMlCnbvHV-20" value="resolve abc.com" style="edgeLabel;html=1;align=center;verticalAlign=middle;resizable=0;points=[];" parent="MYcXMfVTnSXTMlCnbvHV-19" vertex="1" connectable="0">
          <mxGeometry x="-0.1244" relative="1" as="geometry">
            <mxPoint as="offset" />
          </mxGeometry>
        </mxCell>
        <mxCell id="MYcXMfVTnSXTMlCnbvHV-6" value="Client (web browser)" style="sketch=0;pointerEvents=1;shadow=0;dashed=0;html=1;strokeColor=none;fillColor=#434445;aspect=fixed;labelPosition=center;verticalLabelPosition=bottom;verticalAlign=top;align=center;outlineConnect=0;shape=mxgraph.vvd.web_browser;" parent="1" vertex="1">
          <mxGeometry x="26" y="320" width="70.43" height="50" as="geometry" />
        </mxCell>
        <mxCell id="MYcXMfVTnSXTMlCnbvHV-168" value="" style="rounded=0;whiteSpace=wrap;html=1;fillColor=none;dashed=1;" parent="1" vertex="1">
          <mxGeometry x="-20" y="110" width="1830" height="1250" as="geometry" />
        </mxCell>
        <mxCell id="MYcXMfVTnSXTMlCnbvHV-26" value="Cloudflare&lt;br&gt;&amp;nbsp;Proxy" style="points=[[0,0],[0.25,0],[0.5,0],[0.75,0],[1,0],[1,0.25],[1,0.5],[1,0.75],[1,1],[0.75,1],[0.5,1],[0.25,1],[0,1],[0,0.75],[0,0.5],[0,0.25]];outlineConnect=0;gradientColor=none;html=1;whiteSpace=wrap;fontSize=12;fontStyle=0;container=1;pointerEvents=0;collapsible=0;recursiveResize=0;shape=mxgraph.aws4.group;grIcon=mxgraph.aws4.group_aws_cloud;strokeColor=#232F3E;fillColor=none;verticalAlign=top;align=left;spacingLeft=30;fontColor=#232F3E;dashed=1;dashPattern=1 1;" parent="1" vertex="1">
          <mxGeometry x="280" y="328" width="460" height="127" as="geometry" />
        </mxCell>
        <mxCell id="MYcXMfVTnSXTMlCnbvHV-30" value="Bot Control" style="sketch=0;outlineConnect=0;fontColor=#232F3E;gradientColor=none;fillColor=#FF9933;strokeColor=none;dashed=0;verticalLabelPosition=bottom;verticalAlign=top;align=center;html=1;fontSize=12;fontStyle=0;aspect=fixed;pointerEvents=1;shape=mxgraph.aws4.waf_bad_bot;" parent="MYcXMfVTnSXTMlCnbvHV-26" vertex="1">
          <mxGeometry x="340" y="9" width="78" height="71" as="geometry" />
        </mxCell>
        <mxCell id="MYcXMfVTnSXTMlCnbvHV-34" style="rounded=0;orthogonalLoop=1;jettySize=auto;html=1;dashed=1;" parent="MYcXMfVTnSXTMlCnbvHV-26" source="MYcXMfVTnSXTMlCnbvHV-31" target="MYcXMfVTnSXTMlCnbvHV-30" edge="1">
          <mxGeometry relative="1" as="geometry" />
        </mxCell>
        <mxCell id="MYcXMfVTnSXTMlCnbvHV-31" value="WAF" style="sketch=0;points=[[0,0,0],[0.25,0,0],[0.5,0,0],[0.75,0,0],[1,0,0],[0,1,0],[0.25,1,0],[0.5,1,0],[0.75,1,0],[1,1,0],[0,0.25,0],[0,0.5,0],[0,0.75,0],[1,0.25,0],[1,0.5,0],[1,0.75,0]];outlineConnect=0;fontColor=#232F3E;fillColor=#FF9933;strokeColor=#ffffff;dashed=0;verticalLabelPosition=bottom;verticalAlign=top;align=center;html=1;fontSize=12;fontStyle=0;aspect=fixed;shape=mxgraph.aws4.resourceIcon;resIcon=mxgraph.aws4.waf;" parent="MYcXMfVTnSXTMlCnbvHV-26" vertex="1">
          <mxGeometry x="210" y="11.5" width="68.5" height="68.5" as="geometry" />
        </mxCell>
        <mxCell id="MYcXMfVTnSXTMlCnbvHV-33" style="rounded=0;orthogonalLoop=1;jettySize=auto;html=1;dashed=1;" parent="1" source="MYcXMfVTnSXTMlCnbvHV-11" target="MYcXMfVTnSXTMlCnbvHV-31" edge="1">
          <mxGeometry relative="1" as="geometry" />
        </mxCell>
        <mxCell id="MYcXMfVTnSXTMlCnbvHV-59" value="AWS Account" style="points=[[0,0],[0.25,0],[0.5,0],[0.75,0],[1,0],[1,0.25],[1,0.5],[1,0.75],[1,1],[0.75,1],[0.5,1],[0.25,1],[0,1],[0,0.75],[0,0.5],[0,0.25]];outlineConnect=0;gradientColor=none;html=1;whiteSpace=wrap;fontSize=12;fontStyle=0;container=1;pointerEvents=0;collapsible=0;recursiveResize=0;shape=mxgraph.aws4.group;grIcon=mxgraph.aws4.group_aws_cloud_alt;strokeColor=#232F3E;fillColor=none;verticalAlign=top;align=left;spacingLeft=30;fontColor=#232F3E;dashed=0;" parent="1" vertex="1">
          <mxGeometry x="240" y="650" width="1410" height="710" as="geometry" />
        </mxCell>
        <mxCell id="MYcXMfVTnSXTMlCnbvHV-61" value="&lt;font style=&quot;color: rgb(0, 0, 0);&quot;&gt;Cloudfront&lt;/font&gt;" style="sketch=0;outlineConnect=0;gradientColor=none;html=1;whiteSpace=wrap;fontSize=12;fontStyle=0;shape=mxgraph.aws4.group;grIcon=mxgraph.aws4.group_aws_cloud;strokeColor=#000000;fillColor=none;verticalAlign=top;align=left;spacingLeft=30;fontColor=#858B94;dashed=1;" parent="MYcXMfVTnSXTMlCnbvHV-59" vertex="1">
          <mxGeometry x="30.75" y="40" width="439.25" height="510" as="geometry" />
        </mxCell>
        <mxCell id="MYcXMfVTnSXTMlCnbvHV-87" style="edgeStyle=orthogonalEdgeStyle;rounded=0;orthogonalLoop=1;jettySize=auto;html=1;dashed=1;" parent="MYcXMfVTnSXTMlCnbvHV-59" source="MYcXMfVTnSXTMlCnbvHV-63" target="MYcXMfVTnSXTMlCnbvHV-64" edge="1">
          <mxGeometry relative="1" as="geometry" />
        </mxCell>
        <mxCell id="MYcXMfVTnSXTMlCnbvHV-63" value="WAF" style="sketch=0;points=[[0,0,0],[0.25,0,0],[0.5,0,0],[0.75,0,0],[1,0,0],[0,1,0],[0.25,1,0],[0.5,1,0],[0.75,1,0],[1,1,0],[0,0.25,0],[0,0.5,0],[0,0.75,0],[1,0.25,0],[1,0.5,0],[1,0.75,0]];outlineConnect=0;fontColor=#232F3E;fillColor=#FF0000;strokeColor=#ffffff;dashed=0;verticalLabelPosition=bottom;verticalAlign=top;align=center;html=1;fontSize=12;fontStyle=0;aspect=fixed;shape=mxgraph.aws4.resourceIcon;resIcon=mxgraph.aws4.waf;" parent="MYcXMfVTnSXTMlCnbvHV-59" vertex="1">
          <mxGeometry x="111.5" y="80" width="68.5" height="68.5" as="geometry" />
        </mxCell>
        <mxCell id="MYcXMfVTnSXTMlCnbvHV-64" value="Behaviours" style="outlineConnect=0;dashed=0;verticalLabelPosition=bottom;verticalAlign=top;align=center;html=1;shape=mxgraph.aws3.cloudfront;fillColor=#F58536;gradientColor=none;" parent="MYcXMfVTnSXTMlCnbvHV-59" vertex="1">
          <mxGeometry x="246" y="78.5" width="70" height="70" as="geometry" />
        </mxCell>
        <mxCell id="MYcXMfVTnSXTMlCnbvHV-70" value="" style="sketch=0;outlineConnect=0;fontColor=#232F3E;gradientColor=none;fillColor=#FF0000;strokeColor=none;dashed=0;verticalLabelPosition=bottom;verticalAlign=top;align=center;html=1;fontSize=12;fontStyle=0;aspect=fixed;pointerEvents=1;shape=mxgraph.aws4.cache_node;" parent="MYcXMfVTnSXTMlCnbvHV-59" vertex="1">
          <mxGeometry x="380" y="88.5" width="50" height="50" as="geometry" />
        </mxCell>
        <mxCell id="MYcXMfVTnSXTMlCnbvHV-79" style="rounded=0;orthogonalLoop=1;jettySize=auto;html=1;dashed=1;" parent="MYcXMfVTnSXTMlCnbvHV-59" source="MYcXMfVTnSXTMlCnbvHV-72" target="MYcXMfVTnSXTMlCnbvHV-78" edge="1">
          <mxGeometry relative="1" as="geometry" />
        </mxCell>
        <mxCell id="MYcXMfVTnSXTMlCnbvHV-72" value="" style="outlineConnect=0;dashed=0;verticalLabelPosition=bottom;verticalAlign=top;align=center;html=1;shape=mxgraph.aws3.lambda_function;fillColor=#5294CF;gradientColor=none;" parent="MYcXMfVTnSXTMlCnbvHV-59" vertex="1">
          <mxGeometry x="126.13" y="318" width="40" height="40" as="geometry" />
        </mxCell>
        <mxCell id="MYcXMfVTnSXTMlCnbvHV-76" value="Cached request" style="text;html=1;align=center;verticalAlign=middle;whiteSpace=wrap;rounded=0;" parent="MYcXMfVTnSXTMlCnbvHV-59" vertex="1">
          <mxGeometry x="310" y="118.5" width="80" height="31.5" as="geometry" />
        </mxCell>
        <mxCell id="MYcXMfVTnSXTMlCnbvHV-78" value="" style="outlineConnect=0;dashed=0;verticalLabelPosition=bottom;verticalAlign=top;align=center;html=1;shape=mxgraph.aws3.lambda_function;fillColor=#F58534;gradientColor=none;" parent="MYcXMfVTnSXTMlCnbvHV-59" vertex="1">
          <mxGeometry x="125.75" y="408" width="40" height="42" as="geometry" />
        </mxCell>
        <mxCell id="MYcXMfVTnSXTMlCnbvHV-88" value="" style="endArrow=classic;startArrow=classic;html=1;rounded=0;dashed=1;" parent="MYcXMfVTnSXTMlCnbvHV-59" target="MYcXMfVTnSXTMlCnbvHV-70" edge="1">
          <mxGeometry width="50" height="50" relative="1" as="geometry">
            <mxPoint x="320" y="114" as="sourcePoint" />
            <mxPoint x="366" y="70" as="targetPoint" />
          </mxGeometry>
        </mxCell>
        <mxCell id="MYcXMfVTnSXTMlCnbvHV-90" value="Default&amp;nbsp;&lt;div&gt;Behaviour&lt;/div&gt;" style="rounded=1;whiteSpace=wrap;html=1;" parent="MYcXMfVTnSXTMlCnbvHV-59" vertex="1">
          <mxGeometry x="106.13" y="216" width="80" height="40" as="geometry" />
        </mxCell>
        <mxCell id="MYcXMfVTnSXTMlCnbvHV-91" value="/api&lt;br&gt;Behaviour" style="rounded=1;whiteSpace=wrap;html=1;" parent="MYcXMfVTnSXTMlCnbvHV-59" vertex="1">
          <mxGeometry x="350" y="216" width="80" height="40" as="geometry" />
        </mxCell>
        <mxCell id="MYcXMfVTnSXTMlCnbvHV-82" value="AWS S3" style="outlineConnect=0;dashed=0;verticalLabelPosition=bottom;verticalAlign=top;align=center;html=1;shape=mxgraph.aws3.s3;fillColor=#E05243;gradientColor=none;" parent="MYcXMfVTnSXTMlCnbvHV-59" vertex="1">
          <mxGeometry x="108.25" y="590" width="72.12" height="90" as="geometry" />
        </mxCell>
        <mxCell id="MYcXMfVTnSXTMlCnbvHV-99" value="" style="outlineConnect=0;dashed=0;verticalLabelPosition=bottom;verticalAlign=top;align=center;html=1;shape=mxgraph.aws3.lambda_function;fillColor=#5294CF;gradientColor=none;" parent="MYcXMfVTnSXTMlCnbvHV-59" vertex="1">
          <mxGeometry x="370" y="312" width="40" height="40" as="geometry" />
        </mxCell>
        <mxCell id="MYcXMfVTnSXTMlCnbvHV-103" value="" style="endArrow=classic;html=1;rounded=0;entryX=0.75;entryY=0;entryDx=0;entryDy=0;edgeStyle=orthogonalEdgeStyle;" parent="MYcXMfVTnSXTMlCnbvHV-59" target="MYcXMfVTnSXTMlCnbvHV-90" edge="1">
          <mxGeometry width="50" height="50" relative="1" as="geometry">
            <mxPoint x="280" y="164.5" as="sourcePoint" />
            <mxPoint x="330" y="114.5" as="targetPoint" />
            <Array as="points">
              <mxPoint x="280" y="176" />
              <mxPoint x="166" y="176" />
            </Array>
          </mxGeometry>
        </mxCell>
        <mxCell id="MYcXMfVTnSXTMlCnbvHV-116" value="/*" style="edgeLabel;html=1;align=center;verticalAlign=middle;resizable=0;points=[];" parent="MYcXMfVTnSXTMlCnbvHV-103" vertex="1" connectable="0">
          <mxGeometry x="0.1427" y="-1" relative="1" as="geometry">
            <mxPoint x="1" y="1" as="offset" />
          </mxGeometry>
        </mxCell>
        <mxCell id="MYcXMfVTnSXTMlCnbvHV-104" value="" style="endArrow=classic;html=1;rounded=0;entryX=0.388;entryY=-0.012;entryDx=0;entryDy=0;entryPerimeter=0;edgeStyle=orthogonalEdgeStyle;" parent="MYcXMfVTnSXTMlCnbvHV-59" target="MYcXMfVTnSXTMlCnbvHV-91" edge="1">
          <mxGeometry width="50" height="50" relative="1" as="geometry">
            <mxPoint x="280" y="166" as="sourcePoint" />
            <mxPoint x="330" y="116" as="targetPoint" />
            <Array as="points">
              <mxPoint x="280" y="176" />
              <mxPoint x="380" y="176" />
            </Array>
          </mxGeometry>
        </mxCell>
        <mxCell id="MYcXMfVTnSXTMlCnbvHV-117" value="/api" style="edgeLabel;html=1;align=center;verticalAlign=middle;resizable=0;points=[];" parent="MYcXMfVTnSXTMlCnbvHV-104" vertex="1" connectable="0">
          <mxGeometry x="-0.1841" relative="1" as="geometry">
            <mxPoint y="1" as="offset" />
          </mxGeometry>
        </mxCell>
        <mxCell id="MYcXMfVTnSXTMlCnbvHV-105" style="rounded=0;orthogonalLoop=1;jettySize=auto;html=1;" parent="MYcXMfVTnSXTMlCnbvHV-59" source="MYcXMfVTnSXTMlCnbvHV-78" target="MYcXMfVTnSXTMlCnbvHV-82" edge="1">
          <mxGeometry relative="1" as="geometry" />
        </mxCell>
        <mxCell id="MYcXMfVTnSXTMlCnbvHV-106" style="edgeStyle=orthogonalEdgeStyle;rounded=0;orthogonalLoop=1;jettySize=auto;html=1;entryX=0.5;entryY=0;entryDx=0;entryDy=0;entryPerimeter=0;dashed=1;" parent="MYcXMfVTnSXTMlCnbvHV-59" source="MYcXMfVTnSXTMlCnbvHV-90" target="MYcXMfVTnSXTMlCnbvHV-72" edge="1">
          <mxGeometry relative="1" as="geometry" />
        </mxCell>
        <mxCell id="MYcXMfVTnSXTMlCnbvHV-107" style="rounded=0;orthogonalLoop=1;jettySize=auto;html=1;entryX=0.5;entryY=0;entryDx=0;entryDy=0;entryPerimeter=0;dashed=1;" parent="MYcXMfVTnSXTMlCnbvHV-59" source="MYcXMfVTnSXTMlCnbvHV-91" target="MYcXMfVTnSXTMlCnbvHV-99" edge="1">
          <mxGeometry relative="1" as="geometry" />
        </mxCell>
        <mxCell id="MYcXMfVTnSXTMlCnbvHV-108" value="View Request" style="text;html=1;align=center;verticalAlign=middle;whiteSpace=wrap;rounded=0;" parent="MYcXMfVTnSXTMlCnbvHV-59" vertex="1">
          <mxGeometry x="111.5" y="280" width="80" height="30" as="geometry" />
        </mxCell>
        <mxCell id="MYcXMfVTnSXTMlCnbvHV-109" value="View Request" style="text;html=1;align=center;verticalAlign=middle;whiteSpace=wrap;rounded=0;" parent="MYcXMfVTnSXTMlCnbvHV-59" vertex="1">
          <mxGeometry x="360" y="282" width="80" height="30" as="geometry" />
        </mxCell>
        <mxCell id="MYcXMfVTnSXTMlCnbvHV-110" value="Origin Request" style="text;html=1;align=center;verticalAlign=middle;whiteSpace=wrap;rounded=0;" parent="MYcXMfVTnSXTMlCnbvHV-59" vertex="1">
          <mxGeometry x="104.25" y="470" width="98.5" height="30" as="geometry" />
        </mxCell>
        <mxCell id="MYcXMfVTnSXTMlCnbvHV-142" value="&lt;font style=&quot;color: rgb(0, 0, 0);&quot;&gt;Availability zone eu-west-2a,2b,2c&lt;/font&gt;" style="sketch=0;outlineConnect=0;gradientColor=none;html=1;whiteSpace=wrap;fontSize=12;fontStyle=0;shape=mxgraph.aws4.group;grIcon=mxgraph.aws4.group_availability_zone;strokeColor=#545B64;fillColor=none;verticalAlign=top;align=left;spacingLeft=30;fontColor=#545B64;dashed=1;" parent="MYcXMfVTnSXTMlCnbvHV-59" vertex="1">
          <mxGeometry x="560" y="110" width="720" height="440" as="geometry" />
        </mxCell>
        <mxCell id="MYcXMfVTnSXTMlCnbvHV-143" value="&lt;font style=&quot;color: rgb(31, 27, 31);&quot;&gt;VPC (89572fe0)&lt;/font&gt;" style="points=[[0,0],[0.25,0],[0.5,0],[0.75,0],[1,0],[1,0.25],[1,0.5],[1,0.75],[1,1],[0.75,1],[0.5,1],[0.25,1],[0,1],[0,0.75],[0,0.5],[0,0.25]];outlineConnect=0;gradientColor=none;html=1;whiteSpace=wrap;fontSize=12;fontStyle=0;container=1;pointerEvents=0;collapsible=0;recursiveResize=0;shape=mxgraph.aws4.group;grIcon=mxgraph.aws4.group_vpc2;strokeColor=#8C4FFF;fillColor=none;verticalAlign=top;align=left;spacingLeft=30;fontColor=#AAB7B8;dashed=0;" parent="MYcXMfVTnSXTMlCnbvHV-59" vertex="1">
          <mxGeometry x="550" y="70" width="820" height="490" as="geometry" />
        </mxCell>
        <mxCell id="MYcXMfVTnSXTMlCnbvHV-144" style="rounded=0;orthogonalLoop=1;jettySize=auto;html=1;exitX=1;exitY=0.5;exitDx=0;exitDy=0;exitPerimeter=0;" parent="MYcXMfVTnSXTMlCnbvHV-143" source="MYcXMfVTnSXTMlCnbvHV-145" target="MYcXMfVTnSXTMlCnbvHV-148" edge="1">
          <mxGeometry relative="1" as="geometry" />
        </mxCell>
        <mxCell id="MYcXMfVTnSXTMlCnbvHV-145" value="AWS ALB&lt;div&gt;Ports 80, 443&lt;/div&gt;" style="outlineConnect=0;dashed=0;verticalLabelPosition=bottom;verticalAlign=top;align=center;html=1;shape=mxgraph.aws3.application_load_balancer;fillColor=#F58534;gradientColor=none;" parent="MYcXMfVTnSXTMlCnbvHV-143" vertex="1">
          <mxGeometry x="150" y="206" width="69" height="72" as="geometry" />
        </mxCell>
        <mxCell id="MYcXMfVTnSXTMlCnbvHV-146" value="WAF" style="sketch=0;points=[[0,0,0],[0.25,0,0],[0.5,0,0],[0.75,0,0],[1,0,0],[0,1,0],[0.25,1,0],[0.5,1,0],[0.75,1,0],[1,1,0],[0,0.25,0],[0,0.5,0],[0,0.75,0],[1,0.25,0],[1,0.5,0],[1,0.75,0]];outlineConnect=0;fontColor=#232F3E;fillColor=#3333FF;strokeColor=#ffffff;dashed=0;verticalLabelPosition=bottom;verticalAlign=top;align=center;html=1;fontSize=12;fontStyle=0;aspect=fixed;shape=mxgraph.aws4.resourceIcon;resIcon=mxgraph.aws4.waf;" parent="MYcXMfVTnSXTMlCnbvHV-143" vertex="1">
          <mxGeometry x="30" y="202" width="80" height="80" as="geometry" />
        </mxCell>
        <mxCell id="MYcXMfVTnSXTMlCnbvHV-147" value="Region (eu-west-1)&lt;div&gt;&lt;br&gt;&lt;/div&gt;" style="points=[[0,0],[0.25,0],[0.5,0],[0.75,0],[1,0],[1,0.25],[1,0.5],[1,0.75],[1,1],[0.75,1],[0.5,1],[0.25,1],[0,1],[0,0.75],[0,0.5],[0,0.25]];outlineConnect=0;gradientColor=none;html=1;whiteSpace=wrap;fontSize=12;fontStyle=0;container=1;pointerEvents=0;collapsible=0;recursiveResize=0;shape=mxgraph.aws4.group;grIcon=mxgraph.aws4.group_region;strokeColor=#00A4A6;fillColor=none;verticalAlign=top;align=left;spacingLeft=30;fontColor=#147EBA;dashed=1;" parent="MYcXMfVTnSXTMlCnbvHV-143" vertex="1">
          <mxGeometry x="-10" y="-30" width="850" height="550" as="geometry" />
        </mxCell>
        <mxCell id="MYcXMfVTnSXTMlCnbvHV-148" value="Target groups" style="points=[[0,0],[0.25,0],[0.5,0],[0.75,0],[1,0],[1,0.25],[1,0.5],[1,0.75],[1,1],[0.75,1],[0.5,1],[0.25,1],[0,1],[0,0.75],[0,0.5],[0,0.25]];outlineConnect=0;gradientColor=none;html=1;whiteSpace=wrap;fontSize=12;fontStyle=0;container=1;pointerEvents=0;collapsible=0;recursiveResize=0;shape=mxgraph.aws4.group;grIcon=mxgraph.aws4.group_ec2_instance_contents;strokeColor=#D86613;fillColor=none;verticalAlign=top;align=left;spacingLeft=30;fontColor=#D86613;dashed=0;" parent="MYcXMfVTnSXTMlCnbvHV-147" vertex="1">
          <mxGeometry x="260" y="100" width="440" height="400" as="geometry" />
        </mxCell>
        <mxCell id="MYcXMfVTnSXTMlCnbvHV-149" value="&lt;font style=&quot;color: rgb(0, 0, 0);&quot;&gt;Private subnets&lt;/font&gt;" style="sketch=0;outlineConnect=0;gradientColor=none;html=1;whiteSpace=wrap;fontSize=12;fontStyle=0;shape=mxgraph.aws4.group;grIcon=mxgraph.aws4.group_subnet;strokeColor=#879196;fillColor=none;verticalAlign=top;align=left;spacingLeft=30;fontColor=#879196;dashed=0;" parent="MYcXMfVTnSXTMlCnbvHV-148" vertex="1">
          <mxGeometry x="25" y="30" width="395" height="170" as="geometry" />
        </mxCell>
        <mxCell id="MYcXMfVTnSXTMlCnbvHV-150" value="" style="rounded=0;orthogonalLoop=1;jettySize=auto;html=1;startArrow=classic;startFill=1;" parent="MYcXMfVTnSXTMlCnbvHV-148" source="MYcXMfVTnSXTMlCnbvHV-151" target="MYcXMfVTnSXTMlCnbvHV-152" edge="1">
          <mxGeometry relative="1" as="geometry" />
        </mxCell>
        <mxCell id="MYcXMfVTnSXTMlCnbvHV-151" value="EC2 instances" style="outlineConnect=0;dashed=0;verticalLabelPosition=bottom;verticalAlign=top;align=center;html=1;shape=mxgraph.aws3.ec2;fillColor=#F58534;gradientColor=none;" parent="MYcXMfVTnSXTMlCnbvHV-148" vertex="1">
          <mxGeometry x="85" y="80" width="76.5" height="93" as="geometry" />
        </mxCell>
        <mxCell id="MYcXMfVTnSXTMlCnbvHV-152" value="MYSQL - RDS - Mysql aurora" style="outlineConnect=0;dashed=0;verticalLabelPosition=bottom;verticalAlign=top;align=center;html=1;shape=mxgraph.aws3.rds;fillColor=#2E73B8;gradientColor=none;" parent="MYcXMfVTnSXTMlCnbvHV-148" vertex="1">
          <mxGeometry x="315" y="91.5" width="50" height="70" as="geometry" />
        </mxCell>
        <mxCell id="MYcXMfVTnSXTMlCnbvHV-153" value="&lt;font style=&quot;color: rgb(0, 0, 0);&quot;&gt;Public subnets&lt;/font&gt;" style="sketch=0;outlineConnect=0;gradientColor=none;html=1;whiteSpace=wrap;fontSize=12;fontStyle=0;shape=mxgraph.aws4.group;grIcon=mxgraph.aws4.group_subnet;strokeColor=#879196;fillColor=none;verticalAlign=top;align=left;spacingLeft=30;fontColor=#879196;dashed=0;" parent="MYcXMfVTnSXTMlCnbvHV-148" vertex="1">
          <mxGeometry x="25" y="210" width="395" height="150" as="geometry" />
        </mxCell>
        <mxCell id="MYcXMfVTnSXTMlCnbvHV-154" style="edgeStyle=orthogonalEdgeStyle;rounded=0;orthogonalLoop=1;jettySize=auto;html=1;exitX=0.5;exitY=0;exitDx=0;exitDy=0;exitPerimeter=0;startArrow=classic;startFill=1;" parent="MYcXMfVTnSXTMlCnbvHV-148" source="MYcXMfVTnSXTMlCnbvHV-155" target="MYcXMfVTnSXTMlCnbvHV-151" edge="1">
          <mxGeometry relative="1" as="geometry" />
        </mxCell>
        <mxCell id="MYcXMfVTnSXTMlCnbvHV-155" value="EC2 Bastion host instance&lt;div&gt;&lt;br&gt;&lt;/div&gt;" style="outlineConnect=0;dashed=0;verticalLabelPosition=bottom;verticalAlign=top;align=center;html=1;shape=mxgraph.aws3.instance;fillColor=#F58534;gradientColor=none;" parent="MYcXMfVTnSXTMlCnbvHV-148" vertex="1">
          <mxGeometry x="93.25" y="272" width="60" height="63" as="geometry" />
        </mxCell>
        <mxCell id="MYcXMfVTnSXTMlCnbvHV-156" value="NAT GW" style="outlineConnect=0;dashed=0;verticalLabelPosition=bottom;verticalAlign=top;align=center;html=1;shape=mxgraph.aws3.vpc_nat_gateway;fillColor=#F58536;gradientColor=none;" parent="MYcXMfVTnSXTMlCnbvHV-148" vertex="1">
          <mxGeometry x="250" y="216" width="69" height="72" as="geometry" />
        </mxCell>
        <mxCell id="MYcXMfVTnSXTMlCnbvHV-157" style="edgeStyle=orthogonalEdgeStyle;rounded=0;orthogonalLoop=1;jettySize=auto;html=1;exitX=1;exitY=0.79;exitDx=0;exitDy=0;exitPerimeter=0;entryX=0;entryY=0.5;entryDx=0;entryDy=0;entryPerimeter=0;" parent="MYcXMfVTnSXTMlCnbvHV-148" source="MYcXMfVTnSXTMlCnbvHV-151" target="MYcXMfVTnSXTMlCnbvHV-156" edge="1">
          <mxGeometry relative="1" as="geometry" />
        </mxCell>
        <mxCell id="MYcXMfVTnSXTMlCnbvHV-174" value="" style="outlineConnect=0;dashed=0;verticalLabelPosition=bottom;verticalAlign=top;align=center;html=1;shape=mxgraph.aws3.elasticache;fillColor=#2E73B8;gradientColor=none;" parent="MYcXMfVTnSXTMlCnbvHV-148" vertex="1">
          <mxGeometry x="220" y="40" width="67.5" height="81" as="geometry" />
        </mxCell>
        <mxCell id="MYcXMfVTnSXTMlCnbvHV-175" value="Elastic Cache- Redis" style="text;html=1;align=center;verticalAlign=middle;whiteSpace=wrap;rounded=0;" parent="MYcXMfVTnSXTMlCnbvHV-148" vertex="1">
          <mxGeometry x="270" y="61.5" width="130" height="30" as="geometry" />
        </mxCell>
        <mxCell id="MYcXMfVTnSXTMlCnbvHV-176" value="" style="endArrow=classic;startArrow=classic;html=1;rounded=0;entryX=0;entryY=0.21;entryDx=0;entryDy=0;entryPerimeter=0;exitX=0.5;exitY=0;exitDx=0;exitDy=0;exitPerimeter=0;edgeStyle=orthogonalEdgeStyle;" parent="MYcXMfVTnSXTMlCnbvHV-148" source="MYcXMfVTnSXTMlCnbvHV-151" target="MYcXMfVTnSXTMlCnbvHV-174" edge="1">
          <mxGeometry width="50" height="50" relative="1" as="geometry">
            <mxPoint x="180" y="180" as="sourcePoint" />
            <mxPoint x="230" y="130" as="targetPoint" />
          </mxGeometry>
        </mxCell>
        <mxCell id="MYcXMfVTnSXTMlCnbvHV-158" value="IGW" style="text;html=1;align=center;verticalAlign=middle;resizable=0;points=[];autosize=1;strokeColor=none;fillColor=none;fontStyle=1" parent="MYcXMfVTnSXTMlCnbvHV-143" vertex="1">
          <mxGeometry x="760" y="380" width="50" height="30" as="geometry" />
        </mxCell>
        <mxCell id="MYcXMfVTnSXTMlCnbvHV-159" style="edgeStyle=orthogonalEdgeStyle;rounded=0;orthogonalLoop=1;jettySize=auto;html=1;exitX=1;exitY=0.5;exitDx=0;exitDy=0;exitPerimeter=0;entryX=0;entryY=0.5;entryDx=0;entryDy=0;entryPerimeter=0;" parent="MYcXMfVTnSXTMlCnbvHV-143" source="MYcXMfVTnSXTMlCnbvHV-146" target="MYcXMfVTnSXTMlCnbvHV-145" edge="1">
          <mxGeometry relative="1" as="geometry" />
        </mxCell>
        <mxCell id="MYcXMfVTnSXTMlCnbvHV-160" style="edgeStyle=orthogonalEdgeStyle;rounded=0;orthogonalLoop=1;jettySize=auto;html=1;exitX=1;exitY=0.5;exitDx=0;exitDy=0;exitPerimeter=0;entryX=0.145;entryY=0.145;entryDx=0;entryDy=0;entryPerimeter=0;" parent="MYcXMfVTnSXTMlCnbvHV-59" source="MYcXMfVTnSXTMlCnbvHV-156" target="MYcXMfVTnSXTMlCnbvHV-161" edge="1">
          <mxGeometry relative="1" as="geometry" />
        </mxCell>
        <mxCell id="MYcXMfVTnSXTMlCnbvHV-161" value="" style="outlineConnect=0;dashed=0;verticalLabelPosition=bottom;verticalAlign=top;align=center;html=1;shape=mxgraph.aws3.internet_gateway;fillColor=#F58534;gradientColor=none;" parent="MYcXMfVTnSXTMlCnbvHV-59" vertex="1">
          <mxGeometry x="1290" y="382" width="69" height="72" as="geometry" />
        </mxCell>
        <mxCell id="MYcXMfVTnSXTMlCnbvHV-162" style="edgeStyle=orthogonalEdgeStyle;rounded=0;orthogonalLoop=1;jettySize=auto;html=1;exitX=1;exitY=0.5;exitDx=0;exitDy=0;exitPerimeter=0;entryX=0.145;entryY=0.855;entryDx=0;entryDy=0;entryPerimeter=0;" parent="MYcXMfVTnSXTMlCnbvHV-59" source="MYcXMfVTnSXTMlCnbvHV-155" target="MYcXMfVTnSXTMlCnbvHV-161" edge="1">
          <mxGeometry relative="1" as="geometry">
            <mxPoint x="1290" y="440" as="targetPoint" />
          </mxGeometry>
        </mxCell>
        <mxCell id="MYcXMfVTnSXTMlCnbvHV-163" style="rounded=0;orthogonalLoop=1;jettySize=auto;html=1;entryX=0;entryY=0.75;entryDx=0;entryDy=0;entryPerimeter=0;" parent="MYcXMfVTnSXTMlCnbvHV-59" source="MYcXMfVTnSXTMlCnbvHV-99" target="MYcXMfVTnSXTMlCnbvHV-146" edge="1">
          <mxGeometry relative="1" as="geometry" />
        </mxCell>
        <mxCell id="MYcXMfVTnSXTMlCnbvHV-164" value="api call" style="edgeLabel;html=1;align=center;verticalAlign=middle;resizable=0;points=[];" parent="MYcXMfVTnSXTMlCnbvHV-163" vertex="1" connectable="0">
          <mxGeometry x="-0.425" y="1" relative="1" as="geometry">
            <mxPoint as="offset" />
          </mxGeometry>
        </mxCell>
        <mxCell id="MYcXMfVTnSXTMlCnbvHV-114" style="rounded=0;orthogonalLoop=1;jettySize=auto;html=1;exitX=0.558;exitY=1.008;exitDx=0;exitDy=0;exitPerimeter=0;" parent="1" source="MYcXMfVTnSXTMlCnbvHV-42" target="MYcXMfVTnSXTMlCnbvHV-63" edge="1">
          <mxGeometry relative="1" as="geometry" />
        </mxCell>
        <mxCell id="MYcXMfVTnSXTMlCnbvHV-118" value="HTTP Request" style="edgeLabel;html=1;align=center;verticalAlign=middle;resizable=0;points=[];" parent="MYcXMfVTnSXTMlCnbvHV-114" vertex="1" connectable="0">
          <mxGeometry x="-0.1866" y="1" relative="1" as="geometry">
            <mxPoint as="offset" />
          </mxGeometry>
        </mxCell>
        <mxCell id="MYcXMfVTnSXTMlCnbvHV-165" value="&lt;font style=&quot;font-size: 25px;&quot;&gt;&lt;b style=&quot;&quot;&gt;Foodhub Web Architecture&lt;/b&gt;&lt;/font&gt;" style="text;html=1;align=center;verticalAlign=middle;whiteSpace=wrap;rounded=0;" parent="1" vertex="1">
          <mxGeometry x="780" y="140" width="390" height="30" as="geometry" />
        </mxCell>
        <mxCell id="MYcXMfVTnSXTMlCnbvHV-169" value="UI Block" style="text;html=1;align=center;verticalAlign=middle;whiteSpace=wrap;rounded=0;" parent="1" vertex="1">
          <mxGeometry x="450" y="1220" width="60" height="30" as="geometry" />
        </mxCell>
        <mxCell id="MYcXMfVTnSXTMlCnbvHV-170" value="API Block" style="text;html=1;align=center;verticalAlign=middle;whiteSpace=wrap;rounded=0;" parent="1" vertex="1">
          <mxGeometry x="1120" y="1240" width="60" height="30" as="geometry" />
        </mxCell>
      </root>
    </mxGraphModel>
  </diagram>
</mxfile>
